Coordinates
version=1
nRows=26
nColumns=24
inDegrees=yes

Units are S.I. units (second, meters, Newtons, ...)
Angles are in degrees.

endheader
time	pelvis_tilt	pelvis_list	pelvis_rotation	pelvis_tx	pelvis_ty	pelvis_tz	hip_flexion_r	hip_adduction_r	hip_rotation_r	knee_angle_r	ankle_angle_r	subtalar_angle_r	mtp_angle_r	hip_flexion_l	hip_adduction_l	hip_rotation_l	knee_angle_l	ankle_angle_l	subtalar_angle_l	mtp_angle_l	lumbar_extension	lumbar_bending	lumbar_rotation
      2.54500000	     10.50850970	      4.12727183	     -3.42394950	      0.69961201	      0.94404016	     -0.00431330	    -13.72699540	     -6.91622026	     -3.66925935	    -47.28542416	      4.65644397	     -2.57604906	     53.98359331	      2.19918116	      7.21378087	    -12.10087458	     -9.11142891	      5.89529176	    -13.21373964	     29.98403660	    -16.83398419	     -6.98336937	      2.36814775
      2.55000000	     10.21549045	      4.24439312	     -3.48988740	      0.70499652	      0.94407412	     -0.00484211	    -12.37193363	     -7.14222800	     -3.29990521	    -49.17919404	      3.72134678	     -2.91965963	     53.56464691	      2.25602725	      7.35732145	    -12.22959798	     -9.31397125	      6.55415392	    -12.75959458	     29.03234378	    -16.52933182	     -7.12921872	      2.34103256
      2.55500000	     10.09936940	      4.30431263	     -3.65869822	      0.71039662	      0.94440086	     -0.00518228	    -11.22921603	     -7.30007441	     -2.81816653	    -50.93571748	      2.95972633	     -3.29340758	     52.10719439	      2.06590384	      7.45617964	    -12.50745251	     -9.42632157	      7.30953933	    -12.26230669	     26.25175510	    -16.41051609	     -7.24326521	      2.42202019
      2.56000000	      9.94381998	      4.34949144	     -3.78474918	      0.71577523	      0.94468958	     -0.00555587	    -10.06702598	     -7.41909792	     -2.40503423	    -52.58944185	      2.29009776	     -3.79097714	     51.89998484	      1.90151903	      7.53911126	    -12.72614778	     -9.48148174	      7.77530536	    -12.02019249	     26.12174112	    -16.25224781	     -7.32726626	      2.46769155
      2.56500000	      9.81284891	      4.39078263	     -3.88285267	      0.72112426	      0.94500190	     -0.00593032	     -8.95324234	     -7.51534187	     -2.05354247	    -54.17488664	      1.97351381	     -4.21723911	     50.12777867	      1.70205946	      7.61808050	    -12.90703501	     -9.53435379	      8.39392884	    -11.57701546	     24.61736239	    -16.12832613	     -7.40284076	      2.49278554
      2.57000000	      9.65776208	      4.40014613	     -3.95293523	      0.72645745	      0.94531532	     -0.00632135	     -7.84092750	     -7.55750992	     -1.74951528	    -55.64246069	      1.72791678	     -4.82712372	     49.68796641	      1.51696344	      7.66272256	    -13.06128256	     -9.55694542	      8.86116504	    -11.26107554	     24.35818196	    -15.98136078	     -7.43192595	      2.49508727
      2.57500000	      9.50294890	      4.38805625	     -4.01992136	      0.73173923	      0.94563288	     -0.00667306	     -6.74154548	     -7.55904697	     -1.46573192	    -57.03421504	      1.72769476	     -5.43422604	     48.60372104	      1.33282916	      7.68036678	    -13.21940914	     -9.58521137	      9.36391439	    -10.89690548	     23.77139128	    -15.84160903	     -7.43762733	      2.49717737
      2.58000000	      9.47365400	      4.34528607	     -4.12214358	      0.73703340	      0.94616570	     -0.00698689	     -5.80719348	     -7.53050385	     -1.18686885	    -58.31138951	      1.96226159	     -5.97913426	     46.25927413	      0.95956025	      7.69271452	    -13.35451081	     -9.51119743	      9.84746589	    -10.64241198	     22.31671105	    -15.83738851	     -7.41793952	      2.53791191
      2.58500000	      9.39108041	      4.26528397	     -4.17067918	      0.74225617	      0.94664721	     -0.00733844	     -4.83967117	     -7.43840508	     -0.98156032	    -59.47369863	      2.12395386	     -6.84125913	     45.95998243	      0.65636018	      7.65644207	    -13.40280677	     -9.45464825	     10.20587017	    -10.48691576	     22.20355099	    -15.79033881	     -7.34200010	      2.55945217
      2.59000000	      9.26145180	      4.21595472	     -4.22039743	      0.74745604	      0.94702657	     -0.00766267	     -3.81685515	     -7.37567989	     -0.80628046	    -60.61496204	      2.67241434	     -7.45988523	     43.57685303	      0.42314681	      7.64179991	    -13.51357205	     -9.44106279	     10.72278425	    -10.14595975	     20.95991537	    -15.68871416	     -7.29825234	      2.53775538
      2.59500000	      9.13629355	      4.07995381	     -4.21897286	      0.75259860	      0.94748801	     -0.00801809	     -2.84684999	     -7.19493788	     -0.69663611	    -61.59199769	      3.05573811	     -8.42127666	     43.17515858	      0.17790686	      7.53608155	    -13.51612432	     -9.41352291	     11.07034431	     -9.99989055	     20.79851470	    -15.60998385	     -7.14465272	      2.49961217
      2.60000000	      9.10481184	      4.01790049	     -4.24100794	      0.75775292	      0.94804812	     -0.00838667	     -1.98433921	     -7.12286224	     -0.63719297	    -62.49464938	      3.49275132	     -9.43987547	     42.85959164	     -0.20551926	      7.53311363	    -13.49421103	     -9.29172479	     11.29155735	     -9.92889748	     20.70738354	    -15.62903473	     -7.07792931	      2.46334830
      2.60500000	      8.88973359	      3.88859882	     -4.26261593	      0.76281090	      0.94833214	     -0.00868719	     -0.90032700	     -6.94076950	     -0.54926756	    -63.40041956	      4.23692659	    -10.09645325	     39.54536043	     -0.34200099	      7.42473417	    -13.49584112	     -9.28516941	     11.81720892	     -9.65220118	     19.31697556	    -15.45045179	     -6.92995736	      2.48447155
      2.61000000	      8.76673889	      3.72348589	     -4.22870497	      0.76786860	      0.94881033	     -0.00905627	      0.01906065	     -6.71887187	     -0.55608288	    -64.11299013	      4.66856330	    -11.21033112	     39.22594206	     -0.60311095	      7.29142292	    -13.38725229	     -9.22532866	     12.10548739	     -9.56420454	     19.20476122	    -15.38699305	     -6.73184984	      2.44930697
      2.61500000	      8.52987724	      3.63781405	     -4.18986923	      0.77286361	      0.94903561	     -0.00942792	      1.09514702	     -6.59191873	     -0.59999150	    -64.84561068	      5.27845300	    -12.09134545	     37.66864542	     -0.69769764	      7.22563900	    -13.32160871	     -9.23506787	     12.50858027	     -9.35683360	     18.58808577	    -15.19645996	     -6.61404727	      2.36693384
      2.62000000	      8.50765865	      3.47167422	     -4.19499136	      0.77792526	      0.94965163	     -0.00972478	      1.87192531	     -6.37363978	     -0.62311642	    -65.37191085	      5.67398332	    -13.26251384	     37.37808932	     -1.10584231	      7.11158545	    -13.23663967	     -9.08824348	     12.67860598	     -9.43039443	     18.50494072	    -15.24025948	     -6.42552466	      2.34918684
      2.62500000	      8.22357278	      3.35603747	     -4.12832785	      0.78288092	      0.94981274	     -0.01010654	      2.96760657	     -6.20535349	     -0.72414741	    -65.94368125	      6.28706310	    -14.05704058	     35.23095322	     -1.14465445	      7.00687150	    -13.10751681	     -9.11151852	     13.11215494	     -9.21762366	     17.77687551	    -15.00282060	     -6.26323457	      2.29006233
      2.63000000	      8.18600042	      3.13786798	     -4.08470270	      0.78795374	      0.95041881	     -0.01044086	      3.70749489	     -5.92864435	     -0.83486189	    -66.28302958	      6.61325646	    -15.16352214	     34.84353218	     -1.55143383	      6.83328859	    -12.94919124	     -8.94488245	     13.29527210	     -9.26460286	     17.65871239	    -15.03303687	     -6.00302071	      2.27766974
      2.63500000	      8.09078065	      2.98046943	     -4.02159266	      0.79294086	      0.95087493	     -0.01076918	      4.52235059	     -5.71589809	     -0.97361420	    -66.59728142	      6.97193452	    -16.21217152	     34.46463217	     -1.83781187	      6.70611311	    -12.83686414	     -8.87869086	     13.52335362	     -9.25638318	     17.57909464	    -15.00867995	     -5.80574445	      2.18166151
      2.64000000	      7.81771731	      2.82274849	     -3.94843035	      0.79787931	      0.95102818	     -0.01109413	      5.54833209	     -5.49042001	     -1.10655172	    -66.92019468	      7.59156403	    -16.77754912	     32.06525758	     -1.88823445	      6.54892336	    -12.73166102	     -8.90578979	     13.92796655	     -9.01401244	     16.85534413	    -14.78468580	     -5.59458292	      2.13579334
      2.64500000	      7.83034416	      2.62766511	     -3.86095550	      0.80297120	      0.95165192	     -0.01146769	      6.17010780	     -5.25899809	     -1.32195666	    -67.01771855	      7.87300111	    -17.73104172	     31.81496996	     -2.34841863	      6.40090758	    -12.55057088	     -8.73731790	     14.09868169	     -9.08115833	     16.78512664	    -14.86992579	     -5.34966648	      2.07283611
      2.65000000	      7.76019095	      2.41245456	     -3.74431276	      0.80800064	      0.95213823	     -0.01183955	      6.87321805	     -4.99429940	     -1.55241376	    -67.06068466	      8.18403144	    -18.51036237	     31.48254229	     -2.68015703	      6.20833957	    -12.37976526	     -8.64634024	     14.33671974	     -9.03669233	     16.71722413	    -14.87302593	     -5.07379002	      1.98988757
      2.65500000	      7.70294811	      2.20258998	     -3.62229890	      0.81304014	      0.95260556	     -0.01220726	      7.54477064	     -4.73948060	     -1.80033376	    -67.03408653	      8.50798680	    -19.19325677	     31.06393839	     -3.02370990	      6.01895427	    -12.22047935	     -8.55898887	     14.58496346	     -8.95853256	     16.62822583	    -14.88703343	     -4.80204937	      1.90887984
      2.66000000	      7.70244054	      1.99184214	     -3.57234223	      0.81814943	      0.95312896	     -0.01240951	      8.14430218	     -4.46531092	     -1.96839101	    -66.95812793	      9.08586361	    -19.50638740	     28.42626689	     -3.44939805	      5.82375589	    -12.24122254	     -8.44962829	     14.97186988	     -8.58114363	     15.78119275	    -14.94861680	     -4.55519555	      1.90683885
      2.66500000	      7.66191315	      1.77416322	     -3.39704382	      0.82320921	      0.95358966	     -0.01285903	      8.74132924	     -4.22753117	     -2.29936878	    -66.76877898	      9.44324597	    -19.92221773	     28.33767653	     -3.80940043	      5.62575051	    -12.01368195	     -8.36041582	     15.17718778	     -8.59342913	     15.75072308	    -14.98110797	     -4.25929481	      1.78484082
      2.67000000	      7.65345857	      1.54278813	     -3.24277797	      0.82828508	      0.95407493	     -0.01324844	      9.28328241	     -3.96456296	     -2.60662577	    -66.49691542	      9.76699974	    -20.31614753	     28.18346706	     -4.21128284	      5.41109643	    -11.83917600	     -8.25956899	     15.40427472	     -8.54041536	     15.71484051	    -15.04569724	     -3.95557445	      1.69192212
